<?xml version="1.0" encoding="UTF-8"?>
<svg xmlns="http://www.w3.org/2000/svg" viewBox="0 0 960 446" role="img">
<defs><linearGradient id="intro-light-bg" x1="0" x2="1" y1="0" y2="1"><stop offset="0%" stop-color="#f7f9fc"/><stop offset="100%" stop-color="#ffffff"/></linearGradient><linearGradient id="intro-light-accent" x1="0" x2="1"><stop offset="0%" stop-color="#2563eb"/><stop offset="100%" stop-color="#7c3aed"/></linearGradient><radialGradient id="intro-light-glow" cx="78%" cy="42%" r="48%"><stop offset="0%" stop-color="#2563eb" stop-opacity=".16"/><stop offset="100%" stop-color="#2563eb" stop-opacity="0"/></radialGradient></defs>
<rect x="8" y="8" width="944" height="430" rx="26" fill="url(#intro-light-bg)" stroke="#d8e0ea" stroke-width="1.5"/>
<rect x="8" y="8" width="944" height="430" rx="26" fill="url(#intro-light-glow)"/>
<text x="52" y="82" font-family="Inter, -apple-system, BlinkMacSystemFont, Segoe UI, Arial, sans-serif" font-size="34" font-weight="700" fill="#172033" text-anchor="start">Hi, I’m</text>
<text x="174" y="82" font-family="Inter, -apple-system, BlinkMacSystemFont, Segoe UI, Arial, sans-serif" font-size="34" font-weight="800" fill="url(#intro-light-accent)">Mina.</text>
<text x="52" y="138" font-family="Inter, -apple-system, BlinkMacSystemFont, Segoe UI, Arial, sans-serif" font-size="35" font-weight="700" fill="#172033" text-anchor="start">I build agentic workflows and</text>
<text x="52" y="184" font-family="Inter, -apple-system, BlinkMacSystemFont, Segoe UI, Arial, sans-serif" font-size="35" font-weight="700" fill="#172033" text-anchor="start">AI-powered operational systems.</text>
<text x="52" y="229" font-family="Inter, -apple-system, BlinkMacSystemFont, Segoe UI, Arial, sans-serif" font-size="16" font-weight="400" fill="#56657a" text-anchor="start">Connecting AI, APIs, automation, data, and human review</text>
<text x="52" y="254" font-family="Inter, -apple-system, BlinkMacSystemFont, Segoe UI, Arial, sans-serif" font-size="16" font-weight="400" fill="#56657a" text-anchor="start">to turn operational complexity into clear, reviewable action.</text>
<rect x="52" y="292" width="98" height="34" rx="17" fill="#f3f6fa" stroke="#d8e0ea" stroke-width="1"/><text x="66" y="314" font-family="Inter, -apple-system, BlinkMacSystemFont, Segoe UI, Arial, sans-serif" font-size="13" font-weight="600" fill="#56657a" text-anchor="start">AI Systems</text>
<rect x="162" y="292" width="161" height="34" rx="17" fill="#f3f6fa" stroke="#d8e0ea" stroke-width="1"/><text x="176" y="314" font-family="Inter, -apple-system, BlinkMacSystemFont, Segoe UI, Arial, sans-serif" font-size="13" font-weight="600" fill="#56657a" text-anchor="start">Workflow Automation</text>
<rect x="335" y="292" width="196" height="34" rx="17" fill="#f3f6fa" stroke="#d8e0ea" stroke-width="1"/><text x="349" y="314" font-family="Inter, -apple-system, BlinkMacSystemFont, Segoe UI, Arial, sans-serif" font-size="13" font-weight="600" fill="#56657a" text-anchor="start">Operational Intelligence</text>
<rect x="543" y="292" width="147" height="34" rx="17" fill="#f3f6fa" stroke="#d8e0ea" stroke-width="1"/><text x="557" y="314" font-family="Inter, -apple-system, BlinkMacSystemFont, Segoe UI, Arial, sans-serif" font-size="13" font-weight="600" fill="#56657a" text-anchor="start">Human-in-the-loop</text>
<rect x="680" y="280" width="180" height="32" rx="9" fill="#7c3aed" stroke="#7c3aed" stroke-width="1"/>
<rect x="680" y="280" width="180" height="32" rx="9" fill="#7c3aed" opacity=".22"/>
<rect x="690" y="235" width="180" height="32" rx="9" fill="#2563eb" stroke="#2563eb" stroke-width="1"/>
<rect x="690" y="235" width="180" height="32" rx="9" fill="#2563eb" opacity=".22"/>
<rect x="700" y="190" width="180" height="32" rx="9" fill="#0891b2" stroke="#0891b2" stroke-width="1"/>
<rect x="700" y="190" width="180" height="32" rx="9" fill="#0891b2" opacity=".22"/>
<circle cx="638" cy="312" r="6" fill="#2563eb"/>
<circle cx="742" cy="335" r="6" fill="#2563eb"/>
<circle cx="858" cy="304" r="6" fill="#2563eb"/>
<circle cx="884" cy="165" r="6" fill="#2563eb"/>
<line x1="638" y1="312" x2="742" y2="335" stroke="#7c3aed" opacity=".7"/>
<line x1="742" y1="335" x2="858" y2="304" stroke="#7c3aed" opacity=".7"/>
<line x1="858" y1="304" x2="884" y2="165" stroke="#7c3aed" opacity=".7"/>
<rect x="752" y="92" width="60" height="52" rx="13" fill="#f3f6fa" stroke="#d8e0ea" stroke-width="1"/>
<text x="782" y="124" font-family="Inter, -apple-system, BlinkMacSystemFont, Segoe UI, Arial, sans-serif" font-size="16" font-weight="800" fill="#2563eb" text-anchor="middle">AI</text>
<rect x="838" y="122" width="64" height="52" rx="13" fill="#f3f6fa" stroke="#d8e0ea" stroke-width="1"/>
<text x="870" y="154" font-family="Inter, -apple-system, BlinkMacSystemFont, Segoe UI, Arial, sans-serif" font-size="15" font-weight="800" fill="#7c3aed" text-anchor="middle">&lt;/&gt;</text>
<rect x="852" y="226" width="58" height="52" rx="13" fill="#f3f6fa" stroke="#d8e0ea" stroke-width="1"/>
<text x="881" y="258" font-family="Inter, -apple-system, BlinkMacSystemFont, Segoe UI, Arial, sans-serif" font-size="22" font-weight="800" fill="#0891b2" text-anchor="middle">▥</text>
</svg>