<?xml version="1.0" encoding="UTF-8"?>
<svg xmlns="http://www.w3.org/2000/svg" viewBox="0 0 960 446" role="img">
<defs><linearGradient id="intro-light-bg" x1="0" x2="1" y1="0" y2="1"><stop offset="0%" stop-color="#f7f9fc"/><stop offset="100%" stop-color="#ffffff"/></linearGradient><linearGradient id="intro-light-accent" x1="0" x2="1"><stop offset="0%" stop-color="#2563eb"/><stop offset="100%" stop-color="#7c3aed"/></linearGradient><radialGradient id="intro-light-glow" cx="78%" cy="42%" r="48%"><stop offset="0%" stop-color="#2563eb" stop-opacity=".16"/><stop offset="100%" stop-color="#2563eb" stop-opacity="0"/></radialGradient></defs>
<rect x="8" y="8" width="944" height="430" rx="26" fill="url(#intro-light-bg)" stroke="#d8e0ea" stroke-width="1.5"/>
<rect x="8" y="8" width="944" height="430" rx="26" fill="url(#intro-light-glow)"/>
<text x="52" y="82" font-family="Inter, -apple-system, BlinkMacSystemFont, Segoe UI, Arial, sans-serif" font-size="34" font-weight="700" fill="#172033">Hi, I’m <tspan font-weight="800" fill="url(#intro-light-accent)">Mina.</tspan></text>
<text x="52" y="138" font-family="Inter, -apple-system, BlinkMacSystemFont, Segoe UI, Arial, sans-serif" font-size="35" font-weight="700" fill="#172033" text-anchor="start">I build agentic workflows and</text>
<text x="52" y="184" font-family="Inter, -apple-system, BlinkMacSystemFont, Segoe UI, Arial, sans-serif" font-size="35" font-weight="700" fill="#172033" text-anchor="start">AI-powered operational systems.</text>
<text x="52" y="229" font-family="Inter, -apple-system, BlinkMacSystemFont, Segoe UI, Arial, sans-serif" font-size="16" font-weight="400" fill="#56657a" text-anchor="start">Connecting AI, APIs, automation, data, and human review</text>
<text x="52" y="254" font-family="Inter, -apple-system, BlinkMacSystemFont, Segoe UI, Arial, sans-serif" font-size="16" font-weight="400" fill="#56657a" text-anchor="start">to turn operational complexity into clear, reviewable action.</text>
<rect x="52" y="292" width="104" height="34" rx="17" fill="#f3f6fa" stroke="#d8e0ea" stroke-width="1"/>
<text x="104.0" y="314" font-family="Inter, -apple-system, BlinkMacSystemFont, Segoe UI, Arial, sans-serif" font-size="12" font-weight="600" fill="#56657a" text-anchor="middle">AI Systems</text>
<rect x="168" y="292" width="164" height="34" rx="17" fill="#f3f6fa" stroke="#d8e0ea" stroke-width="1"/>
<text x="250.0" y="314" font-family="Inter, -apple-system, BlinkMacSystemFont, Segoe UI, Arial, sans-serif" font-size="12" font-weight="600" fill="#56657a" text-anchor="middle">Workflow Automation</text>
<rect x="344" y="292" width="190" height="34" rx="17" fill="#f3f6fa" stroke="#d8e0ea" stroke-width="1"/>
<text x="439.0" y="314" font-family="Inter, -apple-system, BlinkMacSystemFont, Segoe UI, Arial, sans-serif" font-size="12" font-weight="600" fill="#56657a" text-anchor="middle">Operational Intelligence</text>
<rect x="546" y="292" width="160" height="34" rx="17" fill="#f3f6fa" stroke="#d8e0ea" stroke-width="1"/>
<text x="626.0" y="314" font-family="Inter, -apple-system, BlinkMacSystemFont, Segoe UI, Arial, sans-serif" font-size="12" font-weight="600" fill="#56657a" text-anchor="middle">Human-in-the-loop</text>
<rect x="746" y="278" width="154" height="32" rx="9" fill="#7c3aed" stroke="#7c3aed" stroke-width="1"/>
<rect x="746" y="278" width="154" height="32" rx="9" fill="#7c3aed" opacity=".22"/>
<rect x="756" y="232" width="154" height="32" rx="9" fill="#2563eb" stroke="#2563eb" stroke-width="1"/>
<rect x="756" y="232" width="154" height="32" rx="9" fill="#2563eb" opacity=".22"/>
<rect x="766" y="186" width="154" height="32" rx="9" fill="#0891b2" stroke="#0891b2" stroke-width="1"/>
<rect x="766" y="186" width="154" height="32" rx="9" fill="#0891b2" opacity=".22"/>
<rect x="766" y="84" width="60" height="52" rx="13" fill="#f3f6fa" stroke="#d8e0ea" stroke-width="1"/>
<text x="796" y="116" font-family="Inter, -apple-system, BlinkMacSystemFont, Segoe UI, Arial, sans-serif" font-size="16" font-weight="800" fill="#2563eb" text-anchor="middle">AI</text>
<rect x="846" y="116" width="64" height="52" rx="13" fill="#f3f6fa" stroke="#d8e0ea" stroke-width="1"/>
<text x="878" y="148" font-family="Inter, -apple-system, BlinkMacSystemFont, Segoe UI, Arial, sans-serif" font-size="15" font-weight="800" fill="#7c3aed" text-anchor="middle">&lt;/&gt;</text>
<rect x="858" y="220" width="58" height="52" rx="13" fill="#f3f6fa" stroke="#d8e0ea" stroke-width="1"/>
<text x="887" y="252" font-family="Inter, -apple-system, BlinkMacSystemFont, Segoe UI, Arial, sans-serif" font-size="22" font-weight="800" fill="#0891b2" text-anchor="middle">▥</text>
<circle cx="722" cy="318" r="6" fill="#2563eb"/>
<circle cx="792" cy="338" r="6" fill="#2563eb"/>
<circle cx="878" cy="310" r="6" fill="#2563eb"/>
<circle cx="902" cy="166" r="6" fill="#2563eb"/>
<line x1="722" y1="318" x2="792" y2="338" stroke="#7c3aed" stroke-width="1.5" opacity=".7"/>
<line x1="792" y1="338" x2="878" y2="310" stroke="#7c3aed" stroke-width="1.5" opacity=".7"/>
<line x1="878" y1="310" x2="902" y2="166" stroke="#7c3aed" stroke-width="1.5" opacity=".7"/>
</svg>